<?xml version="1.0" encoding="utf-8"?>
<!-- Generator: Adobe Illustrator 16.0.3, SVG Export Plug-In . SVG Version: 6.00 Build 0)  -->
<!DOCTYPE svg PUBLIC "-//W3C//DTD SVG 1.1//EN" "http://www.w3.org/Graphics/SVG/1.1/DTD/svg11.dtd">
<svg version="1.1" id="Layer_1" xmlns="http://www.w3.org/2000/svg" xmlns:xlink="http://www.w3.org/1999/xlink" x="0px" y="0px"
	 width="152.531px" height="38.188px" viewBox="0 0 152.531 38.188" enable-background="new 0 0 152.531 38.188"
	 xml:space="preserve">
<g id="background">
	<path fill="#73C9BE" d="M120.87,15.534c-1.993,0-3.269,1.59-3.269,3.499v0.044c0,1.912,1.379,3.544,3.31,3.544
		c2.022,0,3.29-1.606,3.29-3.506v-0.039C124.201,17.138,122.824,15.534,120.87,15.534z"/>
	<path fill="#73C9BE" d="M78.201,15.513c-1.687,0-3.166,1.426-3.166,3.52v0.044c0,2.125,1.479,3.516,3.166,3.516
		c1.707,0,3.107-1.354,3.107-3.516v-0.044C81.309,16.904,79.887,15.513,78.201,15.513z"/>
	<path fill="#73C9BE" d="M64.869,15.388c-1.525,0-2.592,1.191-2.82,2.897h5.575C67.459,16.657,66.516,15.388,64.869,15.388z"/>
	<path fill="#73C9BE" d="M26.787,21.221v0.041c0,1.045,0.923,1.621,2.094,1.621c1.649,0,2.88-0.934,2.88-2.311v-0.626
		c-0.633-0.246-1.524-0.431-2.486-0.431C27.71,19.515,26.787,20.16,26.787,21.221z"/>
	<path fill="#73C9BE" d="M133.532,3.973H18.999c-8.285,0-15.026,6.783-15.026,15.121s6.741,15.121,15.026,15.121h114.534
		c8.285,0,15.026-6.783,15.026-15.121S141.817,3.973,133.532,3.973z M18.327,24.803c-3.228,0-5.614-2.559-5.614-5.688v-0.039
		c0-3.121,2.387-5.752,5.632-5.752c2.06,0,3.334,0.774,4.342,1.9l-1.54,1.68c-0.764-0.807-1.568-1.37-2.82-1.37
		c-1.809,0-3.126,1.59-3.126,3.499v0.044c0,1.955,1.339,3.544,3.248,3.544c1.175,0,2.04-0.564,2.821-1.382l1.497,1.504
		C21.701,23.948,20.445,24.803,18.327,24.803z M34.167,24.555h-2.469v-1.359c-0.738,0.896-1.868,1.585-3.514,1.585
		c-2.056,0-3.87-1.185-3.87-3.392v-0.044c0-2.435,1.876-3.602,4.407-3.602c1.314,0,2.157,0.188,2.999,0.454v-0.203
		c0-1.523-0.944-2.357-2.672-2.357c-1.214,0-2.117,0.272-3.104,0.69l-0.679-2.017c1.19-0.542,2.364-0.92,4.135-0.92
		c3.207,0,4.767,1.711,4.767,4.645V24.555z M46.758,24.555h-2.488v-1.711c-0.695,1.042-1.709,1.937-3.391,1.937
		c-2.45,0-3.87-1.665-3.87-4.228v-6.997h2.493v6.252c0,1.704,0.84,2.685,2.322,2.685c1.441,0,2.445-1.022,2.445-2.73v-6.207h2.488
		V24.555z M57.645,21.301c0,2.315-1.77,3.457-4.031,3.457c-1.546,0-3.248-0.561-4.605-1.643l1.112-1.707
		c1.17,0.898,2.441,1.352,3.555,1.352c1.071,0,1.688-0.453,1.688-1.185V21.53c0-0.854-1.151-1.145-2.431-1.537
		c-1.6-0.463-3.392-1.129-3.392-3.227v-0.048c0-2.078,1.708-3.35,3.868-3.35c1.356,0,2.839,0.48,3.992,1.253l-0.989,1.787
		c-1.048-0.646-2.159-1.041-3.066-1.041c-0.967,0-1.521,0.461-1.521,1.103v0.044c0,0.794,1.17,1.122,2.45,1.54
		c1.582,0.498,3.372,1.228,3.372,3.207V21.301z M70.05,19.946h-7.974c0.263,1.8,1.516,2.797,3.12,2.797
		c1.214,0,2.078-0.462,2.943-1.317l1.461,1.317c-1.03,1.247-2.452,2.06-4.44,2.06c-3.147,0-5.579-2.31-5.579-5.708v-0.042
		c0-3.143,2.203-5.729,5.305-5.729c3.455,0,5.209,2.755,5.209,5.919C70.095,19.468,70.065,19.7,70.05,19.946z M83.836,19.077
		c0,3.642-2.467,5.704-5.06,5.704c-1.786,0-2.926-0.916-3.678-1.937v1.711h-2.495V9.349h2.495v6.04
		c0.801-1.141,1.927-2.064,3.678-2.064c2.567,0,5.06,2.064,5.06,5.708V19.077z M96.016,24.555h-2.489v-1.711
		c-0.695,1.042-1.707,1.937-3.393,1.937c-2.446,0-3.866-1.665-3.866-4.228v-6.997h2.488v6.252c0,1.704,0.842,2.685,2.322,2.685
		c1.438,0,2.448-1.022,2.448-2.73v-6.207h2.489V24.555z M105.068,15.722h-2.916v5.391c0,0.981,0.492,1.381,1.33,1.381
		c0.559,0,1.051-0.124,1.546-0.374v2.059c-0.62,0.352-1.315,0.561-2.241,0.561c-1.831,0-3.127-0.813-3.127-3.227v-5.79h-1.376
		v-2.166h1.376v-3.018h2.492v3.018h2.916V15.722z M113.507,15.722h-2.919v5.391c0,0.981,0.493,1.381,1.332,1.381
		c0.556,0,1.05-0.124,1.545-0.374v2.059c-0.616,0.352-1.314,0.561-2.242,0.561c-1.831,0-3.125-0.813-3.125-3.227v-5.79h-1.379
		v-2.166h1.379v-3.018h2.49v3.018h2.919V15.722z M126.691,19.077c0,3.121-2.467,5.726-5.821,5.726c-3.312,0-5.755-2.559-5.755-5.688
		v-0.039c0-3.148,2.469-5.752,5.796-5.752c3.334,0,5.78,2.566,5.78,5.708V19.077z M138.975,24.555h-2.486v-6.248
		c0-1.712-0.844-2.688-2.324-2.688c-1.438,0-2.447,1.024-2.447,2.729v6.207h-2.49V13.556h2.49v1.708
		c0.701-1.043,1.706-1.939,3.393-1.939c2.448,0,3.865,1.67,3.865,4.233V24.555z"/>
	<path fill="#73C9BE" d="M133.532,2c9.388,0,16.999,7.653,16.999,17.094s-7.611,17.094-16.999,17.094H18.999
		C9.611,36.188,2,28.534,2,19.094S9.611,2,18.999,2H133.532 M133.532,0H18.999C8.522,0,0,8.565,0,19.094s8.522,19.094,18.999,19.094
		h114.534c10.476,0,18.999-8.565,18.999-19.094S144.008,0,133.532,0L133.532,0z"/>
</g>
<g id="foreground">
	<path fill="#FFFFFF" d="M18.448,22.621c-1.909,0-3.248-1.59-3.248-3.544v-0.044c0-1.908,1.317-3.499,3.126-3.499
		c1.251,0,2.056,0.563,2.82,1.37l1.54-1.68c-1.008-1.126-2.282-1.9-4.342-1.9c-3.246,0-5.632,2.631-5.632,5.752v0.039
		c0,3.129,2.387,5.688,5.614,5.688c2.118,0,3.374-0.854,4.439-2.06l-1.497-1.504C20.488,22.057,19.623,22.621,18.448,22.621z"/>
	<path fill="#FFFFFF" d="M29.4,13.391c-1.771,0-2.945,0.378-4.135,0.92l0.679,2.017c0.987-0.417,1.889-0.69,3.104-0.69
		c1.729,0,2.672,0.833,2.672,2.357v0.203c-0.841-0.265-1.684-0.454-2.999-0.454c-2.531,0-4.407,1.167-4.407,3.602v0.044
		c0,2.207,1.814,3.392,3.87,3.392c1.646,0,2.775-0.688,3.514-1.585v1.359h2.469v-6.519C34.167,15.102,32.607,13.391,29.4,13.391z
		 M31.761,20.572c0,1.377-1.231,2.311-2.88,2.311c-1.17,0-2.094-0.576-2.094-1.621v-0.041c0-1.061,0.923-1.706,2.488-1.706
		c0.962,0,1.853,0.186,2.486,0.431V20.572z"/>
	<path fill="#FFFFFF" d="M44.271,19.763c0,1.708-1.004,2.73-2.445,2.73c-1.482,0-2.322-0.981-2.322-2.685v-6.252H37.01v6.997
		c0,2.563,1.419,4.228,3.87,4.228c1.682,0,2.696-0.895,3.391-1.937v1.711h2.488V13.556h-2.488V19.763z"/>
	<path fill="#FFFFFF" d="M54.273,18.055c-1.279-0.418-2.45-0.746-2.45-1.54v-0.044c0-0.642,0.555-1.103,1.521-1.103
		c0.907,0,2.018,0.395,3.066,1.041l0.989-1.787c-1.153-0.773-2.636-1.253-3.992-1.253c-2.159,0-3.868,1.272-3.868,3.35v0.048
		c0,2.098,1.792,2.764,3.392,3.227c1.28,0.393,2.431,0.684,2.431,1.537v0.045c0,0.731-0.617,1.185-1.688,1.185
		c-1.113,0-2.385-0.453-3.555-1.352l-1.112,1.707c1.357,1.082,3.06,1.643,4.605,1.643c2.261,0,4.031-1.142,4.031-3.457v-0.039
		C57.645,19.283,55.854,18.553,54.273,18.055z"/>
	<path fill="#FFFFFF" d="M64.886,13.324c-3.102,0-5.305,2.585-5.305,5.729v0.042c0,3.398,2.432,5.708,5.579,5.708
		c1.988,0,3.41-0.813,4.44-2.06l-1.461-1.317c-0.865,0.855-1.729,1.317-2.943,1.317c-1.604,0-2.857-0.997-3.12-2.797h7.974
		c0.016-0.246,0.045-0.478,0.045-0.702C70.095,16.079,68.341,13.324,64.886,13.324z M62.048,18.286
		c0.229-1.706,1.295-2.897,2.82-2.897c1.647,0,2.591,1.269,2.754,2.897H62.048z"/>
	<path fill="#FFFFFF" d="M78.776,13.324c-1.751,0-2.876,0.923-3.678,2.064v-6.04h-2.495v15.206h2.495v-1.711
		c0.752,1.021,1.892,1.937,3.678,1.937c2.593,0,5.06-2.062,5.06-5.704v-0.044C83.836,15.388,81.344,13.324,78.776,13.324z
		 M81.309,19.077c0,2.163-1.4,3.516-3.107,3.516c-1.687,0-3.166-1.391-3.166-3.516v-0.044c0-2.094,1.479-3.52,3.166-3.52
		c1.686,0,3.107,1.392,3.107,3.52V19.077z"/>
	<path fill="#FFFFFF" d="M93.526,19.763c0,1.708-1.011,2.73-2.448,2.73c-1.48,0-2.322-0.981-2.322-2.685v-6.252h-2.488v6.997
		c0,2.563,1.42,4.228,3.866,4.228c1.686,0,2.697-0.895,3.393-1.937v1.711h2.489V13.556h-2.489V19.763z"/>
	<path fill="#FFFFFF" d="M102.152,10.538H99.66v3.018h-1.376v2.166h1.376v5.79c0,2.414,1.296,3.227,3.127,3.227
		c0.926,0,1.621-0.209,2.241-0.561v-2.059c-0.495,0.25-0.987,0.374-1.546,0.374c-0.838,0-1.33-0.399-1.33-1.381v-5.391h2.916v-2.166
		h-2.916V10.538z"/>
	<path fill="#FFFFFF" d="M110.588,10.538h-2.49v3.018h-1.379v2.166h1.379v5.79c0,2.414,1.294,3.227,3.125,3.227
		c0.928,0,1.626-0.209,2.242-0.561v-2.059c-0.495,0.25-0.989,0.374-1.545,0.374c-0.839,0-1.332-0.399-1.332-1.381v-5.391h2.919
		v-2.166h-2.919V10.538z"/>
	<path fill="#FFFFFF" d="M120.911,13.324c-3.327,0-5.796,2.604-5.796,5.752v0.039c0,3.129,2.443,5.688,5.755,5.688
		c3.354,0,5.821-2.605,5.821-5.726v-0.044C126.691,15.89,124.245,13.324,120.911,13.324z M124.201,19.115
		c0,1.899-1.268,3.506-3.29,3.506c-1.931,0-3.31-1.633-3.31-3.544v-0.044c0-1.908,1.275-3.499,3.269-3.499
		c1.954,0,3.331,1.604,3.331,3.542V19.115z"/>
	<path fill="#FFFFFF" d="M135.109,13.324c-1.687,0-2.691,0.896-3.393,1.939v-1.708h-2.49v10.999h2.49v-6.207
		c0-1.705,1.01-2.729,2.447-2.729c1.48,0,2.324,0.976,2.324,2.688v6.248h2.486v-6.997C138.975,14.994,137.558,13.324,135.109,13.324
		z"/>
	<path fill="#FFFFFF" d="M133.532,2H18.999C9.611,2,2,9.653,2,19.094s7.611,17.094,16.999,17.094h114.534
		c9.388,0,16.999-7.653,16.999-17.094S142.92,2,133.532,2z M133.532,34.215H18.999c-8.285,0-15.026-6.783-15.026-15.121
		S10.713,3.973,18.999,3.973h114.534c8.285,0,15.026,6.783,15.026,15.121S141.817,34.215,133.532,34.215z"/>
</g>
</svg>
