<?xml version="1.0" encoding="utf-8"?>
<!-- Generator: Adobe Illustrator 14.0.0, SVG Export Plug-In  -->
<!DOCTYPE svg PUBLIC "-//W3C//DTD SVG 1.1//EN" "http://www.w3.org/Graphics/SVG/1.1/DTD/svg11.dtd" [
	<!ENTITY ns_flows "http://ns.adobe.com/Flows/1.0/">
]>
<svg version="1.1"
	 xmlns="http://www.w3.org/2000/svg" xmlns:xlink="http://www.w3.org/1999/xlink" xmlns:a="http://ns.adobe.com/AdobeSVGViewerExtensions/3.0/"
	 x="0px" y="0px" width="199px" height="30px" viewBox="0 0 199 30" enable-background="new 0 0 199 30" xml:space="preserve">
<defs>
</defs>
<path fill="#1B75BC" d="M98.288,23.791c0,3.113-2.523,5.637-5.635,5.637H6.365c-3.113,0-5.635-2.523-5.635-5.637V6.365
	c0-3.113,2.522-5.635,5.635-5.635h86.287c3.112,0,5.635,2.521,5.635,5.635V23.791"/>
<path fill="#25AAE1" d="M92.652,0.73H6.365c-3.113,0-5.635,2.521-5.635,5.635v1.504c4.406,1.441,30.112,4.03,48.777,4.03
	s44.426-2.556,48.78-3.942V6.365C98.288,3.252,95.765,0.73,92.652,0.73"/>
<path fill="none" stroke="#2B3890" stroke-width="1.461" stroke-miterlimit="10" d="M98.288,23.791c0,3.113-2.523,5.637-5.635,5.637
	H6.365c-3.113,0-5.635-2.523-5.635-5.637V6.365c0-3.113,2.522-5.635,5.635-5.635h86.287c3.112,0,5.635,2.521,5.635,5.635V23.791z"/>
<path fill="#FFFFFF" d="M15.563,20.531h4.438v3.387h-5.667c-1.08,0-2.132-0.113-3.162-0.344c-1.031-0.23-1.955-0.734-2.773-1.514
	c-0.68-0.659-1.211-1.436-1.59-2.324S6.19,17.934,6.09,16.992c0-0.139-0.006-0.283-0.015-0.434c-0.01-0.15-0.016-0.295-0.016-0.436
	c0-0.18,0.006-0.359,0.016-0.539c0.009-0.18,0.025-0.359,0.045-0.539c0.08-0.92,0.31-1.82,0.689-2.699s0.91-1.649,1.59-2.309
	c0.818-0.779,1.742-1.289,2.773-1.529c1.03-0.24,2.082-0.358,3.162-0.358l5.667-0.031v3.418h-4.438
	c-0.059,0.021-0.125,0.031-0.193,0.031c-0.071,0-0.135,0-0.196,0c-0.121,0-0.236,0-0.345,0c-0.11,0-0.215,0-0.315,0
	c-0.4,0-0.789,0.028-1.17,0.089c-0.379,0.06-0.738,0.189-1.078,0.389c-0.74,0.44-1.234,1.03-1.484,1.771
	c-0.25,0.739-0.375,1.509-0.375,2.308c0.019,0.779,0.16,1.526,0.42,2.235c0.259,0.709,0.74,1.272,1.439,1.692
	c0.34,0.201,0.699,0.33,1.078,0.392c0.381,0.058,0.77,0.099,1.17,0.118c0.121,0,0.244,0,0.375,0c0.129,0,0.256,0,0.375,0
	c0.061,0,0.115,0,0.164,0c0.051,0,0.096,0,0.135,0V20.531"/>
<path fill="#FFFFFF" d="M31.633,8.118c0.92,0.021,1.805,0.125,2.654,0.314c0.848,0.19,1.614,0.625,2.293,1.304
	c0.58,0.561,0.985,1.221,1.215,1.979c0.229,0.76,0.344,1.54,0.344,2.339v9.863H26.926c-1.619,0-2.859-0.443-3.717-1.334
	c-0.861-0.889-1.25-2.123-1.17-3.703c0.139-1.897,0.809-3.127,2.008-3.688c1.199-0.559,2.629-0.837,4.289-0.837l5.487-0.032
	c0.058-1.298-0.276-2.108-1.006-2.429c-0.729-0.319-1.653-0.479-2.772-0.479l-6.957-0.029V8.118H31.633 M28.635,20.74h5.217v-3.268
	h-4.916c-0.041,0.02-0.08,0.029-0.121,0.029c-0.039,0-0.08,0-0.119,0c-0.561,0.022-1.081,0.125-1.561,0.316
	c-0.479,0.189-0.729,0.635-0.748,1.334c-0.041,0.779,0.174,1.238,0.644,1.379c0.469,0.139,1.004,0.219,1.604,0.24V20.74z"/>
<path fill="#FFFFFF" d="M48.245,23.918c-2.019,0-3.619-0.398-4.797-1.199c-1.18-0.799-1.769-2.317-1.769-4.557V8.118h4.168v9.685
	c0,1.059,0.199,1.77,0.599,2.129c0.399,0.359,1.11,0.539,2.129,0.539l3.358-0.028V8.118H56.1v15.8H48.245"/>
<path fill="#FFFFFF" d="M68.392,20.621c0.041,0.02,0.08,0.03,0.121,0.03c0.039,0,0.078,0,0.119,0c0.5-0.021,0.959-0.13,1.379-0.331
	c0.42-0.199,0.631-0.609,0.631-1.229c0-0.58-0.201-0.969-0.6-1.17c-0.4-0.199-0.83-0.318-1.291-0.359c-0.058,0-0.119,0-0.179,0
	c-0.059,0-0.12,0-0.18,0l-3.598-0.029c-1.677,0.02-3.004-0.211-3.972-0.689c-0.969-0.48-1.465-1.699-1.485-3.658
	c-0.019-1.84,0.481-3.139,1.5-3.898c1.02-0.76,2.379-1.138,4.078-1.138l8.963-0.031v3.298h-7.375
	c-0.06,0.02-0.115,0.029-0.164,0.029c-0.051,0-0.105,0-0.166,0c-0.138,0-0.275,0-0.404,0c-0.131,0-0.275,0-0.436,0
	c-0.359,0.021-0.703,0.102-1.033,0.24c-0.33,0.141-0.545,0.4-0.644,0.779c-0.16,0.7-0.02,1.18,0.42,1.439
	c0.439,0.26,0.949,0.391,1.529,0.391l3.777-0.031c1.479,0.021,2.717,0.365,3.717,1.035s1.529,1.824,1.59,3.463
	c0,0.02,0,0.035,0,0.045c0,0.011,0,0.025,0,0.045c0.019,1.279-0.346,2.443-1.094,3.492c-0.75,1.051-1.824,1.574-3.225,1.574H59.606
	v-3.297H68.392"/>
<path fill="#FFFFFF" d="M81.447,23.514c-1.049-0.27-1.975-0.834-2.773-1.693c-0.639-0.699-1.104-1.5-1.395-2.398
	c-0.289-0.9-0.465-1.818-0.523-2.758c0-0.102,0-0.201,0-0.301s0-0.199,0-0.301c0-0.139,0-0.273,0-0.404
	c0-0.129,0.009-0.264,0.029-0.404c0.06-0.898,0.234-1.784,0.525-2.654c0.289-0.869,0.744-1.643,1.364-2.322
	c0.798-0.88,1.724-1.455,2.773-1.725c1.049-0.27,2.133-0.403,3.254-0.403l6.086-0.031v3.298H85.27
	c-1.158,0.02-2.088,0.195-2.787,0.526c-0.701,0.328-1.07,1.153-1.109,2.472l9.414-0.029v3.297h-9.414
	c0.039,1.381,0.388,2.22,1.049,2.52c0.66,0.299,1.599,0.45,2.818,0.45l5.547-0.03v3.297h-6.086
	C83.581,23.918,82.497,23.783,81.447,23.514"/>
<path fill="#1B75BC" d="M108.831,8.118h3.598c1.219,0.021,2.369,0.18,3.447,0.479c1.08,0.3,2.02,0.959,2.818,1.979
	c0.661,0.84,1.12,1.765,1.379,2.773c0.26,1.011,0.362,2.045,0.301,3.104c-0.099,2.318-0.814,4.143-2.144,5.473
	c-1.329,1.328-3.172,1.992-5.532,1.992h-8.035V2.392h4.168V8.118 M111.379,11.536h-2.549v8.995c0.199,0.02,0.404,0.036,0.615,0.045
	c0.209,0.01,0.414,0.014,0.614,0.014c1.398,0.041,2.693-0.068,3.882-0.328c1.19-0.26,1.864-1.289,2.024-3.09
	c0.019-0.238,0.035-0.484,0.045-0.734c0.01-0.247,0.015-0.494,0.015-0.734c-0.019-0.439-0.08-0.869-0.179-1.289
	c-0.1-0.42-0.26-0.81-0.481-1.169c-0.439-0.8-1.004-1.279-1.693-1.439c-0.69-0.159-1.453-0.238-2.293-0.238V11.536z"/>
<path fill="#1B75BC" d="M129.399,23.918c-2.02,0-3.62-0.398-4.797-1.199c-1.18-0.799-1.77-2.317-1.77-4.557V8.118H127v9.685
	c0,1.059,0.199,1.77,0.6,2.129c0.398,0.359,1.109,0.539,2.129,0.539l3.357-0.028V8.118h4.168v15.8H129.399"/>
<path fill="#1B75BC" d="M142.379,8.118V2.392h4.168v5.727h4.408v3.147h-4.408v6.387c-0.02,1.581,0.34,2.499,1.08,2.758
	c0.738,0.26,1.758,0.391,3.059,0.391c0.039,0,0.084,0,0.134,0c0.049,0,0.094,0,0.135,0v3.117h-3.808
	c-1.579,0-2.768-0.439-3.569-1.318c-0.799-0.879-1.199-2.078-1.199-3.598v-7.736h-2.938V8.118H142.379"/>
<path fill="#1B75BC" d="M154.792,8.118V2.392h4.168v5.727h4.408v3.147h-4.408v6.387c-0.02,1.581,0.339,2.499,1.08,2.758
	c0.738,0.26,1.757,0.391,3.058,0.391c0.039,0,0.084,0,0.135,0c0.049,0,0.094,0,0.135,0v3.117h-3.809
	c-1.578,0-2.767-0.439-3.568-1.318c-0.799-0.879-1.199-2.078-1.199-3.598v-7.736h-2.937V8.118H154.792"/>
<path fill="#1B75BC" d="M179.197,22.029c-0.76,0.76-1.676,1.32-2.744,1.68c-1.069,0.359-2.174,0.539-3.313,0.539
	c-1.138,0-2.238-0.18-3.299-0.539c-1.058-0.359-1.968-0.91-2.728-1.648c-0.779-0.76-1.363-1.67-1.754-2.729
	c-0.389-1.061-0.584-2.148-0.584-3.27c0-1.119,0.195-2.207,0.584-3.268c0.391-1.059,0.975-1.969,1.754-2.728
	c0.76-0.739,1.674-1.293,2.744-1.665c1.068-0.369,2.174-0.555,3.312-0.555c1.12,0,2.215,0.186,3.284,0.555
	c1.068,0.372,1.984,0.926,2.744,1.665c0.779,0.759,1.363,1.669,1.754,2.728c0.388,1.061,0.584,2.148,0.584,3.268
	c0,1.121-0.196,2.209-0.584,3.27c-0.391,1.059-0.975,1.969-1.754,2.729V22.029 M171.73,20.561c0.141,0.061,0.275,0.109,0.406,0.15
	c0.129,0.039,0.254,0.07,0.373,0.09c0.961,0.142,1.86-0.039,2.7-0.539c0.839-0.5,1.398-1.23,1.679-2.189
	c0.1-0.339,0.174-0.705,0.225-1.094c0.049-0.391,0.074-0.785,0.074-1.186c-0.039-0.879-0.25-1.713-0.629-2.503
	c-0.381-0.79-0.99-1.364-1.83-1.723c-0.18-0.081-0.369-0.142-0.568-0.181c-0.201-0.041-0.391-0.069-0.571-0.091
	c-0.92-0.079-1.779,0.13-2.578,0.63c-0.799,0.5-1.34,1.199-1.619,2.1c-0.099,0.34-0.176,0.693-0.224,1.064
	c-0.051,0.369-0.065,0.734-0.045,1.094c0.019,0.939,0.234,1.824,0.644,2.652c0.41,0.83,1.065,1.416,1.963,1.754V20.561z"/>
<path fill="#1B75BC" d="M191.938,8.118c2.078,0.021,3.697,0.43,4.857,1.229c1.159,0.799,1.739,2.328,1.739,4.587v9.983h-4.166
	v-9.504c0-1.098-0.182-1.838-0.541-2.219c-0.36-0.378-1.1-0.569-2.219-0.569l-3.357-0.03v12.322h-4.168v-15.8H191.938"/>
</svg>
