<?xml version="1.0" encoding="utf-8"?>
<!-- Generator: Adobe Illustrator 14.0.0, SVG Export Plug-In  -->
<!DOCTYPE svg PUBLIC "-//W3C//DTD SVG 1.1//EN" "http://www.w3.org/Graphics/SVG/1.1/DTD/svg11.dtd" [
	<!ENTITY ns_flows "http://ns.adobe.com/Flows/1.0/">
]>
<svg version="1.1"
	 xmlns="http://www.w3.org/2000/svg" xmlns:xlink="http://www.w3.org/1999/xlink" xmlns:a="http://ns.adobe.com/AdobeSVGViewerExtensions/3.0/"
	 x="0px" y="0px" width="181px" height="22px" viewBox="0 0 181 22" enable-background="new 0 0 181 22" xml:space="preserve">
<defs>
</defs>
<path fill="#FFFFFF" d="M9.504,18.139h4.438v3.388H8.275c-1.08,0-2.133-0.115-3.163-0.345c-1.03-0.229-1.954-0.734-2.773-1.514
	c-0.68-0.659-1.21-1.434-1.589-2.323c-0.38-0.89-0.62-1.804-0.72-2.744c0-0.139-0.006-0.284-0.016-0.434S0,13.872,0,13.732
	c0-0.18,0.005-0.36,0.015-0.54c0.01-0.179,0.025-0.36,0.045-0.539c0.08-0.92,0.311-1.819,0.69-2.699
	c0.379-0.879,0.909-1.649,1.589-2.309c0.819-0.779,1.743-1.289,2.773-1.528c1.03-0.24,2.083-0.36,3.163-0.36l5.667-0.03v3.418H9.504
	c-0.06,0.02-0.125,0.03-0.194,0.03c-0.071,0-0.136,0-0.196,0c-0.119,0-0.234,0-0.344,0c-0.111,0-0.215,0-0.314,0
	c-0.4,0-0.791,0.029-1.17,0.089c-0.38,0.061-0.739,0.191-1.079,0.39c-0.739,0.44-1.234,1.03-1.483,1.769
	c-0.251,0.74-0.375,1.51-0.375,2.309c0.02,0.78,0.159,1.524,0.42,2.234c0.259,0.709,0.739,1.274,1.438,1.694
	c0.34,0.2,0.699,0.329,1.079,0.389c0.379,0.06,0.77,0.101,1.17,0.12c0.119,0,0.243,0,0.375,0c0.129,0,0.254,0,0.373,0
	c0.062,0,0.116,0,0.166,0c0.049,0,0.094,0,0.135,0V18.139"/>
<path fill="#FFFFFF" d="M25.575,5.727c0.92,0.02,1.805,0.125,2.653,0.314c0.849,0.191,1.614,0.625,2.293,1.305
	c0.58,0.56,0.985,1.219,1.215,1.979c0.229,0.759,0.345,1.539,0.345,2.338v9.864H20.868c-1.619,0-2.859-0.444-3.718-1.334
	c-0.86-0.889-1.25-2.123-1.17-3.703c0.14-1.898,0.81-3.128,2.009-3.687c1.199-0.56,2.629-0.84,4.288-0.84l5.487-0.03
	c0.059-1.299-0.276-2.108-1.006-2.429c-0.729-0.319-1.653-0.479-2.772-0.479l-6.956-0.03V5.727H25.575 M22.577,18.349h5.217v-3.268
	h-4.916c-0.041,0.02-0.08,0.03-0.121,0.03c-0.039,0-0.08,0-0.119,0c-0.561,0.02-1.08,0.125-1.561,0.315
	c-0.479,0.19-0.729,0.635-0.748,1.334c-0.041,0.779,0.174,1.24,0.645,1.379c0.469,0.14,1.004,0.22,1.604,0.24V18.349z"/>
<path fill="#FFFFFF" d="M42.185,21.527c-2.019,0-3.618-0.399-4.797-1.199c-1.181-0.799-1.769-2.319-1.769-4.557V5.727h4.168v9.684
	c0,1.059,0.198,1.769,0.598,2.128c0.4,0.36,1.111,0.54,2.13,0.54l3.358-0.03V5.727h4.166v15.8H42.185"/>
<path fill="#FFFFFF" d="M62.333,18.229c0.041,0.02,0.08,0.03,0.121,0.03c0.039,0,0.078,0,0.119,0c0.499-0.02,0.959-0.13,1.379-0.33
	c0.42-0.2,0.631-0.61,0.631-1.229c0-0.58-0.201-0.97-0.601-1.17c-0.399-0.199-0.83-0.319-1.29-0.359c-0.059,0-0.119,0-0.179,0
	s-0.12,0-0.181,0l-3.598-0.03c-1.678,0.02-3.004-0.21-3.972-0.69c-0.97-0.48-1.466-1.699-1.485-3.658
	c-0.02-1.838,0.48-3.137,1.499-3.898c1.021-0.759,2.379-1.139,4.078-1.139l8.964-0.03v3.298h-7.375
	c-0.061,0.02-0.115,0.03-0.165,0.03s-0.104,0-0.165,0c-0.139,0-0.275,0-0.404,0c-0.131,0-0.274,0-0.436,0
	c-0.359,0.021-0.704,0.101-1.034,0.24c-0.329,0.141-0.545,0.4-0.644,0.78c-0.16,0.699-0.02,1.179,0.42,1.439
	c0.439,0.26,0.949,0.39,1.529,0.39l3.776-0.031c1.479,0.021,2.718,0.366,3.718,1.035c1,0.67,1.529,1.824,1.59,3.463
	c0,0.02,0,0.035,0,0.045c0,0.01,0,0.025,0,0.045c0.019,1.279-0.346,2.443-1.094,3.493c-0.75,1.049-1.824,1.574-3.224,1.574H53.547
	v-3.298H62.333"/>
<path fill="#FFFFFF" d="M75.389,21.122c-1.051-0.27-1.975-0.834-2.773-1.694c-0.64-0.699-1.105-1.499-1.395-2.398
	c-0.29-0.9-0.465-1.819-0.524-2.758c0-0.101,0-0.2,0-0.301c0-0.099,0-0.199,0-0.3c0-0.139,0-0.274,0-0.404
	c0-0.13,0.009-0.265,0.03-0.405c0.059-0.899,0.234-1.784,0.523-2.654c0.289-0.869,0.744-1.643,1.365-2.323
	c0.799-0.879,1.723-1.454,2.773-1.724c1.049-0.27,2.133-0.405,3.253-0.405l6.086-0.03v3.298h-5.517
	c-1.16,0.02-2.09,0.195-2.789,0.525s-1.068,1.155-1.108,2.473l9.414-0.029v3.297h-9.414c0.04,1.38,0.39,2.219,1.05,2.519
	c0.659,0.3,1.598,0.45,2.818,0.45l5.546-0.03v3.298h-6.086C77.522,21.527,76.438,21.392,75.389,21.122"/>
<path fill="#25AAE1" d="M91.592,5.727h3.599c1.22,0.02,2.369,0.18,3.448,0.48c1.078,0.299,2.019,0.959,2.818,1.979
	c0.66,0.839,1.119,1.764,1.379,2.773c0.26,1.009,0.36,2.043,0.299,3.103c-0.098,2.319-0.813,4.143-2.143,5.472
	c-1.328,1.329-3.173,1.993-5.531,1.993h-8.035V0.001h4.166V5.727 M94.142,9.145h-2.55v8.994c0.201,0.021,0.406,0.035,0.615,0.046
	c0.211,0.01,0.414,0.014,0.615,0.014c1.398,0.041,2.693-0.07,3.883-0.329c1.188-0.26,1.863-1.289,2.023-3.089
	c0.02-0.239,0.035-0.484,0.045-0.734s0.016-0.495,0.016-0.734c-0.021-0.44-0.08-0.87-0.181-1.29s-0.26-0.81-0.479-1.169
	c-0.439-0.799-1.004-1.279-1.693-1.439c-0.689-0.16-1.454-0.24-2.294-0.24V9.145z"/>
<path fill="#25AAE1" d="M112.163,21.527c-2.021,0-3.619-0.399-4.798-1.199c-1.18-0.799-1.771-2.319-1.771-4.557V5.727h4.169v9.684
	c0,1.059,0.198,1.769,0.6,2.128c0.399,0.36,1.109,0.54,2.13,0.54l3.356-0.03V5.727h4.168v15.8H112.163"/>
<path fill="#25AAE1" d="M125.143,5.727V0h4.168v5.727h4.408v3.148h-4.408v6.386c-0.02,1.579,0.34,2.499,1.08,2.758
	c0.738,0.26,1.758,0.39,3.059,0.39c0.039,0,0.084,0,0.135,0c0.049,0,0.094,0,0.135,0v3.118h-3.809c-1.578,0-2.768-0.439-3.568-1.319
	c-0.799-0.879-1.199-2.079-1.199-3.598V8.875h-2.938V5.727H125.143"/>
<path fill="#25AAE1" d="M137.555,5.727V0h4.168v5.727h4.408v3.148h-4.408v6.386c-0.02,1.579,0.34,2.499,1.08,2.758
	c0.738,0.26,1.758,0.39,3.059,0.39c0.039,0,0.084,0,0.135,0c0.049,0,0.094,0,0.135,0v3.118h-3.809c-1.578,0-2.768-0.439-3.568-1.319
	c-0.799-0.879-1.199-2.079-1.199-3.598V8.875h-2.938V5.727H137.555"/>
<path fill="#25AAE1" d="M161.961,19.638c-0.76,0.76-1.676,1.319-2.744,1.679s-2.174,0.539-3.313,0.539s-2.238-0.179-3.299-0.539
	c-1.059-0.36-1.969-0.909-2.729-1.649c-0.779-0.759-1.363-1.668-1.754-2.728c-0.389-1.06-0.584-2.149-0.584-3.268
	c0-1.12,0.195-2.208,0.584-3.268c0.391-1.06,0.975-1.969,1.754-2.729c0.76-0.739,1.674-1.294,2.744-1.664
	c1.068-0.369,2.174-0.554,3.313-0.554c1.119,0,2.215,0.185,3.283,0.554c1.068,0.37,1.984,0.925,2.744,1.664
	c0.779,0.76,1.363,1.669,1.754,2.729c0.389,1.06,0.584,2.148,0.584,3.268c0,1.119-0.195,2.208-0.584,3.268
	c-0.391,1.06-0.975,1.969-1.754,2.728V19.638 M154.495,18.169c0.141,0.06,0.275,0.11,0.406,0.15c0.129,0.04,0.254,0.07,0.373,0.09
	c0.961,0.14,1.859-0.04,2.699-0.54c0.84-0.499,1.398-1.229,1.68-2.188c0.1-0.339,0.174-0.704,0.225-1.094
	c0.049-0.39,0.074-0.784,0.074-1.184c-0.039-0.879-0.25-1.714-0.629-2.504c-0.381-0.789-0.99-1.364-1.83-1.724
	c-0.18-0.079-0.369-0.139-0.568-0.179c-0.201-0.04-0.391-0.07-0.57-0.091c-0.92-0.079-1.779,0.131-2.578,0.63
	c-0.799,0.5-1.34,1.2-1.619,2.099c-0.1,0.34-0.176,0.695-0.225,1.064c-0.051,0.371-0.064,0.735-0.045,1.095
	c0.02,0.939,0.234,1.824,0.645,2.653c0.41,0.83,1.064,1.414,1.963,1.754V18.169z"/>
<path fill="#25AAE1" d="M174.702,5.727c2.078,0.02,3.697,0.43,4.857,1.229c1.158,0.8,1.738,2.329,1.738,4.587v9.984h-4.166v-9.504
	c0-1.099-0.182-1.838-0.541-2.218c-0.359-0.38-1.1-0.57-2.219-0.57l-3.357-0.03v12.322h-4.168v-15.8H174.702"/>
</svg>
