<?xml version="1.0" encoding="utf-8"?>
<!-- Generator: Adobe Illustrator 14.0.0, SVG Export Plug-In  -->
<!DOCTYPE svg PUBLIC "-//W3C//DTD SVG 1.1//EN" "http://www.w3.org/Graphics/SVG/1.1/DTD/svg11.dtd" [
	<!ENTITY ns_flows "http://ns.adobe.com/Flows/1.0/">
]>
<svg version="1.1"
	 xmlns="http://www.w3.org/2000/svg" xmlns:xlink="http://www.w3.org/1999/xlink" xmlns:a="http://ns.adobe.com/AdobeSVGViewerExtensions/3.0/"
	 x="0px" y="0px" width="431px" height="131px" viewBox="0 0 431 131" enable-background="new 0 0 431 131" xml:space="preserve">
<defs>
</defs>
<path fill="#1B75BC" d="M427.739,103.536c0,13.549-10.979,24.531-24.524,24.531H27.701c-13.547,0-24.522-10.982-24.522-24.531
	V27.701c0-13.549,10.975-24.522,24.522-24.522h375.514c13.544,0,24.524,10.974,24.524,24.522V103.536"/>
<path fill="#25AAE1" d="M403.215,3.179H27.701c-13.547,0-24.522,10.974-24.522,24.522v6.545
	c19.173,6.272,131.044,17.539,212.272,17.539c81.229,0,193.339-11.122,212.288-17.157v-6.927
	C427.739,14.152,416.76,3.179,403.215,3.179"/>
<path fill="#2B3890" d="M403.215,131.246H27.701C12.427,131.246,0,118.815,0,103.536V27.701C0,12.427,12.427,0,27.701,0h375.514
	c15.276,0,27.703,12.427,27.703,27.701v75.835C430.918,118.815,418.492,131.246,403.215,131.246L403.215,131.246z M27.701,6.358
	c-11.768,0-21.343,9.574-21.343,21.343v75.835c0,11.772,9.575,21.352,21.343,21.352h375.514c11.77,0,21.345-9.579,21.345-21.352
	V27.701c0-11.769-9.575-21.343-21.345-21.343H27.701L27.701,6.358z"/>
<path fill="#FFFFFF" d="M67.731,89.351h19.314v14.738H62.382c-4.7,0-9.277-0.493-13.761-1.496
	c-4.486-1.003-8.508-3.195-12.067-6.587c-2.96-2.869-5.27-6.247-6.919-10.115c-1.649-3.867-2.694-7.845-3.13-11.942
	c0-0.604-0.025-1.232-0.065-1.887c-0.042-0.654-0.068-1.283-0.068-1.896c0-0.782,0.026-1.563,0.068-2.346
	c0.04-0.782,0.11-1.564,0.197-2.346c0.347-4.004,1.35-7.922,2.999-11.747s3.958-7.178,6.919-10.047
	c3.559-3.392,7.582-5.609,12.067-6.655c4.484-1.046,9.061-1.56,13.761-1.56l24.663-0.136v14.874H67.731
	c-0.257,0.09-0.544,0.136-0.839,0.136c-0.31,0-0.588,0-0.854,0c-0.527,0-1.026,0-1.5,0c-0.48,0-0.937,0-1.371,0
	c-1.742,0-3.434,0.124-5.093,0.388c-1.649,0.259-3.211,0.824-4.69,1.691c-3.222,1.916-5.372,4.483-6.46,7.705
	c-1.088,3.217-1.632,6.565-1.632,10.042c0.083,3.392,0.697,6.643,1.83,9.729c1.126,3.085,3.219,5.537,6.262,7.365
	c1.479,0.875,3.041,1.437,4.69,1.704c1.659,0.25,3.351,0.429,5.093,0.514c0.525,0,1.061,0,1.632,0c0.561,0,1.114,0,1.632,0
	c0.263,0,0.499,0,0.712,0c0.223,0,0.418,0,0.588,0V89.351"/>
<path fill="#FFFFFF" d="M137.666,35.33c4.003,0.089,7.856,0.544,11.551,1.368c3.689,0.828,7.023,2.72,9.979,5.674
	c2.524,2.439,4.286,5.313,5.287,8.614c0.997,3.307,1.498,6.702,1.498,10.179v42.924h-48.799c-7.044,0-12.442-1.93-16.175-5.806
	c-3.747-3.867-5.44-9.239-5.091-16.115c0.603-8.258,3.521-13.608,8.738-16.048c5.219-2.431,11.44-3.642,18.666-3.642l23.878-0.141
	c0.253-5.648-1.201-9.176-4.377-10.569c-3.172-1.39-7.193-2.087-12.063-2.087l-30.277-0.128V35.33H137.666 M124.618,90.26h22.705
	V76.04h-21.394c-0.178,0.085-0.348,0.127-0.527,0.127c-0.17,0-0.349,0-0.519,0c-2.441,0.098-4.705,0.544-6.793,1.377
	c-2.084,0.824-3.172,2.763-3.255,5.806c-0.179,3.392,0.759,5.389,2.803,6.001c2.042,0.604,4.371,0.952,6.98,1.045V90.26z"/>
<path fill="#FFFFFF" d="M209.957,104.089c-8.787,0-15.75-1.733-20.877-5.219c-5.134-3.477-7.699-10.085-7.699-19.83V35.33h18.139
	v42.146c0,4.607,0.867,7.701,2.607,9.266c1.736,1.563,4.833,2.346,9.265,2.346l14.615-0.123V35.33h18.134v68.759H209.957"/>
<path fill="#FFFFFF" d="M297.635,89.741c0.178,0.085,0.346,0.132,0.525,0.132c0.17,0,0.34,0,0.518,0
	c2.176-0.089,4.174-0.565,6.001-1.44c1.828-0.867,2.748-2.652,2.748-5.347c0-2.524-0.875-4.216-2.611-5.092
	c-1.74-0.866-3.613-1.385-5.619-1.563c-0.253,0-0.519,0-0.78,0c-0.257,0-0.521,0-0.782,0l-15.659-0.128
	c-7.299,0.085-13.073-0.918-17.287-3c-4.216-2.091-6.375-7.395-6.462-15.92c-0.083-8.007,2.093-13.659,6.528-16.966
	c4.439-3.307,10.353-4.951,17.748-4.951l39.005-0.136v14.352h-32.095c-0.261,0.085-0.501,0.127-0.714,0.127
	c-0.221,0-0.457,0-0.723,0c-0.599,0-1.196,0-1.757,0c-0.572,0-1.196,0-1.897,0c-1.562,0.094-3.06,0.442-4.497,1.046
	c-1.437,0.612-2.372,1.742-2.803,3.392c-0.695,3.047-0.087,5.134,1.828,6.265c1.912,1.13,4.131,1.699,6.655,1.699l16.437-0.136
	c6.437,0.094,11.825,1.59,16.177,4.505c4.352,2.916,6.653,7.939,6.919,15.07c0,0.085,0,0.153,0,0.195c0,0.047,0,0.11,0,0.195
	c0.083,5.567-1.507,10.634-4.762,15.198c-3.264,4.573-7.937,6.851-14.033,6.851h-46.84V89.741H297.635"/>
<path fill="#FFFFFF" d="M354.452,102.329c-4.564-1.173-8.593-3.629-12.067-7.369c-2.78-3.043-4.805-6.527-6.071-10.438
	c-1.258-3.919-2.023-7.913-2.276-12.002c0-0.441,0-0.875,0-1.309s0-0.867,0-1.31c0-0.604,0-1.189,0-1.759
	c0-0.562,0.041-1.147,0.127-1.76c0.259-3.91,1.018-7.765,2.285-11.552c1.258-3.782,3.236-7.147,5.935-10.105
	c3.474-3.829,7.503-6.333,12.067-7.506c4.566-1.173,9.284-1.755,14.163-1.755L395.1,35.33v14.352h-24.014
	c-5.041,0.085-9.086,0.85-12.129,2.291c-3.051,1.428-4.656,5.019-4.826,10.756l40.969-0.127v14.348h-40.969
	c0.17,6.009,1.687,9.66,4.564,10.965c2.873,1.3,6.959,1.959,12.263,1.959l24.142-0.132v14.348h-26.485
	C363.736,104.089,359.018,103.503,354.452,102.329"/>
</svg>
